<?xml version="1.0" encoding="UTF-8" standalone="no"?><svg viewBox="0 0 72 72" xmlns="http://www.w3.org/2000/svg" xmlns:xlink="http://www.w3.org/1999/xlink"><style>:root>svg{display:none}:root>svg:target{display:block}</style><svg viewBox="0 0 72 72" id="facebook" xmlns="http://www.w3.org/2000/svg"><g><rect width="72" height="72" rx="8"/><path d="M60.464 13.417v9.31l-5.526.015c-4.331 0-5.166 2.058-5.166 5.066v6.662H60.09L58.752 44.89h-8.98V72H39.01V44.889H30V34.47h9.01v-7.684C39.01 17.864 44.448 13 52.42 13c3.8 0 7.08.288 8.044.417z" fill="#0A5D31"/></g></svg><svg viewBox="0 0 24 24" fill="none" stroke="currentColor" stroke-width="2" stroke-linecap="round" stroke-linejoin="round" class="bfeather bfeather-instagram" id="instagram" xmlns="http://www.w3.org/2000/svg"><rect x="2" y="2" width="20" height="20" rx="5" ry="5"/><path d="M16 11.37A4 4 0 1112.63 8 4 4 0 0116 11.37zM17.5 6.5h0"/></svg><svg viewBox="0 0 20 14" id="youtube" xmlns="http://www.w3.org/2000/svg"><path d="M7.988 9.586V3.974c1.993.938 3.536 1.843 5.36 2.82-1.505.834-3.367 1.77-5.36 2.792m11.103-8.403c-.344-.453-.93-.805-1.553-.922-1.833-.348-13.267-.349-15.099 0-.5.094-.945.32-1.328.673C-.5 2.429.005 10.452.393 11.75c.164.562.375.968.64 1.235.343.352.812.594 1.351.703 1.51.312 9.284.486 15.122.047a2.62 2.62 0 001.39-.712c1.49-1.49 1.388-9.962.195-11.841"/></svg></svg>